<svg width="937" height="206" viewBox="0 0 937 206" fill="none" xmlns="http://www.w3.org/2000/svg">
<g clip-path="url(#clip0_59_626)">
<path d="M162.44 0H116.99C116.99 37.2981 99.8692 71.3352 70.1123 93.7548L52.1766 107.207L121.881 202.184H179.153L114.952 114.748C145.32 84.5831 162.44 43.8202 162.44 0ZM0 0H46.4698V202.184H0V0ZM192.605 0H236.425V202.184H192.605V0ZM620.82 58.4948C604.107 58.4948 588.209 63.5902 577.611 78.061V62.3673H536.033V202.184H578.222V128.811C578.222 107.614 592.489 97.2196 609.61 97.2196C627.953 97.2196 638.551 108.226 638.551 128.607V202.388H680.334V113.321C680.334 80.7106 654.449 58.4948 620.82 58.4948ZM368.905 62.3673V71.3352C357.083 63.1826 342.816 58.4948 327.326 58.4948C286.564 58.4948 253.546 91.5128 253.546 132.276C253.546 173.039 286.564 206.057 327.326 206.057C342.816 206.057 357.083 201.369 368.905 193.216V202.184H410.687V62.3673H368.905ZM330.791 168.147C309.798 168.147 292.882 152.046 292.882 132.276C292.882 112.506 309.798 96.4044 330.791 96.4044C351.784 96.4044 368.701 112.506 368.701 132.276C368.701 152.046 351.784 168.147 330.791 168.147ZM475.5 80.5068V62.3673H432.699V202.184H475.704V136.963C475.704 114.951 499.55 103.13 516.059 103.13H516.466V62.3673C499.55 62.3673 483.856 69.7046 475.5 80.5068ZM810.367 62.3673V71.3352C798.546 63.1826 784.279 58.4948 768.789 58.4948C728.026 58.4948 695.008 91.5128 695.008 132.276C695.008 173.039 728.026 206.057 768.789 206.057C784.279 206.057 798.546 201.369 810.367 193.216V202.184H852.149V62.3673H810.367ZM772.254 168.147C751.261 168.147 734.344 152.046 734.344 132.276C734.344 112.506 751.261 96.4044 772.254 96.4044C793.247 96.4044 810.164 112.506 810.164 132.276C810.367 152.046 793.247 168.147 772.254 168.147ZM884.556 66.4436C884.556 64.4054 883.129 63.1826 880.887 63.1826H877.015V73.7809H878.849V69.9084H880.887L882.518 73.7809H884.556L882.722 69.5008C883.944 68.8894 884.556 67.8703 884.556 66.4436ZM880.887 68.0741H878.849V64.8131H880.887C882.11 64.8131 882.722 65.4245 882.722 66.4436C882.722 67.4627 882.314 68.0741 880.887 68.0741Z" fill="black"/>
<path d="M894.543 0C889.04 0 884.556 4.48393 884.556 9.98692C884.759 15.4899 889.04 19.9738 894.543 19.9738C900.046 19.9738 904.529 15.4899 904.529 9.98692C904.529 4.48393 900.046 0 894.543 0ZM894.543 18.1395C890.059 18.1395 886.594 14.4708 886.594 9.98692C886.594 5.503 890.262 1.83434 894.543 1.83434C899.026 1.83434 902.491 5.503 902.491 9.98692C902.491 14.4708 898.823 18.1395 894.543 18.1395ZM911.052 93.9586C896.581 93.9586 884.759 105.78 884.759 120.251C884.759 134.722 896.581 146.543 911.052 146.543C925.522 146.543 937.344 134.722 937.344 120.251C937.344 105.576 925.522 93.9586 911.052 93.9586Z" fill="black"/>
</g>
<defs>
<clipPath id="clip0_59_626">
<rect width="937" height="206" fill="white"/>
</clipPath>
</defs>
</svg>
