<svg width="636" height="202" viewBox="0 0 636 202" fill="none" xmlns="http://www.w3.org/2000/svg">
<g clip-path="url(#clip0_59_629)">
<path d="M57.0144 20.6147L81.8726 104.736L106.243 20.6147H135.001L92.1083 145.385H70.662L27.7695 20.6147H57.0144Z" fill="#FF5B24"/>
<path d="M199.827 125.625C217.861 125.625 228.097 115.463 237.845 100.784C243.207 92.8801 250.031 91.1863 254.905 95.7029C259.779 100.219 260.267 108.688 254.905 116.592C240.77 138.046 222.736 151.031 199.827 151.031C174.969 151.031 153.035 135.223 137.925 107.559C133.539 100.22 134.514 92.3155 139.388 88.3635C144.262 84.4115 151.573 86.1052 155.96 94.0092C166.683 112.64 181.305 125.625 199.827 125.625ZM233.459 56.1828C233.459 66.3451 226.635 73.12 218.836 73.12C211.038 73.12 204.214 66.3451 204.214 56.1828C204.214 46.0205 211.038 39.2456 218.836 39.2456C226.635 39.2456 233.459 46.5851 233.459 56.1828Z" fill="#FF5B24"/>
<path d="M302.184 20.6147V37.5519C309.495 25.6959 320.706 17.2273 337.278 17.2273C358.236 17.2273 382.607 37.5519 382.607 81.0241C382.607 126.754 359.211 148.773 334.841 148.773C322.168 148.773 310.47 143.127 301.696 129.013V188.857H275.376V20.6147H302.184ZM302.184 82.7178C302.184 108.124 314.857 121.673 328.992 121.673C342.639 121.673 356.287 109.253 356.287 82.7178C356.287 56.7474 342.639 44.3268 328.992 44.3268C315.344 44.3268 302.184 56.1828 302.184 82.7178Z" fill="#FF5B24"/>
<path d="M428.912 20.6147V37.5519C436.224 25.6959 447.434 17.2273 464.006 17.2273C484.965 17.2273 509.336 37.5519 509.336 81.0241C509.336 126.754 485.94 148.773 461.569 148.773C448.896 148.773 437.198 143.127 428.425 129.013V188.857H402.104V20.6147H428.912ZM428.912 82.7178C428.912 108.124 441.585 121.673 455.72 121.673C469.368 121.673 483.015 109.253 483.015 82.7178C483.015 56.7474 469.368 44.3268 455.72 44.3268C441.585 44.3268 428.912 56.1828 428.912 82.7178Z" fill="#FF5B24"/>
<path d="M565.388 17.2273C587.322 17.2273 602.919 29.0833 609.743 58.4411L585.859 62.9577C585.372 48.2788 577.573 43.1977 565.875 43.1977C557.102 43.1977 550.278 47.7142 550.278 55.0537C550.278 60.6994 553.69 66.3452 563.926 68.6034L581.96 72.5555C599.507 76.5075 609.255 90.0572 609.255 108.124C609.255 135.223 588.297 148.773 568.313 148.773C547.354 148.773 523.958 136.352 520.546 105.865L544.429 101.349C545.891 117.157 554.178 122.802 567.825 122.802C578.061 122.802 584.885 118.286 584.885 110.946C584.885 104.172 581.473 99.0904 570.262 96.8321L553.69 93.4447C536.143 89.4927 525.42 75.3783 525.42 57.312C525.907 29.0833 547.841 17.2273 565.388 17.2273Z" fill="#FF5B24"/>
</g>
<defs>
<clipPath id="clip0_59_629">
<rect width="636" height="202" fill="white"/>
</clipPath>
</defs>
</svg>
